<svg width="512" height="512" viewBox="0 0 512 512" fill="none" xmlns="http://www.w3.org/2000/svg">
<g clip-path="url(#clip0_23_785)">
<path d="M286.5 301V327.875C286.5 330.688 282.438 333.187 277.438 333.187H234.937C229.937 333.187 225.875 331 225.875 327.875V301.313C225.875 298.5 229.937 296 234.937 296H277.125C282.125 296 286.5 298.188 286.5 301Z" fill="#FFE81F"/>
<path d="M392.75 343.188C388.062 334.125 381.187 327.562 372.125 323.812V281.625C387.75 275.375 399 260.375 399 242.562C399 219.437 380.25 200.375 356.812 200.375C355.875 200.375 355.25 200.375 354.312 200.375C353.687 190.688 351.812 181 348.375 171.625V171.312V171C348.062 170.375 348.062 170.062 347.75 169.437C347.437 168.812 347.125 168.188 347.125 167.563C346.812 167.25 346.812 166.937 346.5 166.312C346.187 165.687 345.875 165.063 345.562 164.438C345.562 164.125 345.25 163.813 345.25 163.5C344.937 162.875 344.625 162.25 344.312 161.625C344 161.312 344 161 343.687 160.688C343.375 160.063 343.062 159.75 343.062 159.125C342.75 158.5 342.437 158.188 342.125 157.563C341.812 156.938 341.5 156.625 341.187 156C340.875 155.688 340.875 155.375 340.562 154.75C340.25 154.125 339.937 153.813 339.625 153.5C339 152.563 338.375 151.625 337.75 150.687C337.437 150.375 337.125 149.75 336.812 149.438C336.5 149.125 336.187 148.5 335.875 148.188C327.125 136 315.562 126 302.75 119.125C297.437 116.312 291.812 113.813 285.875 111.938C276.187 108.812 266.187 107.25 255.875 107.25C224.312 107.25 194.312 122.563 175.875 148.5C170.875 155.688 166.5 163.5 163.687 171.625C163.687 171.625 163.687 171.625 163.687 171.938V172.25C160.25 181.313 158.375 191 157.75 201C156.812 201 155.562 201 154.625 201C131.5 201 112.437 219.75 112.437 243.188C112.437 261.313 123.687 276.625 139.625 282.562V324.438C130.562 328.188 123.687 334.75 119 343.812C112.437 356.312 109.938 373.5 109.938 401.312C109.937 403.5 112.125 406 115.25 406H162.75C165.563 406 168.062 403.5 168.062 400.688V376H230.25L228.375 400.375C228.375 401.937 228.687 403.187 229.625 404.437C230.562 405.687 232.125 406 233.687 406H278.375C279 406 279.937 405.688 280.562 405.688C282.437 404.75 283.687 402.875 283.687 400.688C283.687 400.375 283.687 400.062 283.687 399.75L280.875 375.688H343.687V400.375C343.687 403.187 346.187 405.688 349 405.688H396.5C399.312 405.688 401.812 403.187 401.812 400.375C401.812 372.562 399.312 355.375 392.75 343.188ZM161.812 324.75H150.875V281.625H161.812V324.75ZM237.75 160.062C238.687 153.812 242.75 148.5 248.375 146C250.562 145.062 253.062 144.437 255.562 144.437C262.75 144.437 269 148.5 271.812 154.438C273.062 156.938 273.687 159.438 273.687 162.25C273.687 171.625 266.5 179.125 257.75 180.063C257.125 180.063 256.5 180.063 255.875 180.063C255.562 180.063 254.937 180.063 254.625 180.063C254.312 180.063 254 180.063 253.687 180.063C244.625 179.125 237.75 171.313 237.75 162.25C237.75 161.625 237.75 161 237.75 160.062ZM226.812 179.125V185.688C226.812 188.5 229.312 191 232.125 191H281.5C284.312 191 286.812 188.5 286.812 185.688V138.813C286.812 138.188 286.812 137.563 286.5 136.938C285.562 135.062 283.687 133.5 281.5 133.5H259.937C264.625 128.812 269.937 124.125 275.25 119.75C276.187 120.063 276.812 120.062 277.75 120.375C278.687 120.687 279.312 120.688 279.937 121C280.562 121 280.875 121.312 281.5 121.625C281.812 121.625 282.125 121.937 282.75 121.937C283.375 122.25 284.312 122.563 284.937 122.563C288.375 123.813 292.125 125.375 295.25 126.937C304.625 131.625 313.375 137.875 320.562 145.687H304C301.187 145.687 298.687 148.188 298.687 151V172.875C298.687 175.687 301.187 178.188 304 178.188H339.625C341.812 185.375 343.375 192.562 343.687 200.062H217.75C220.25 193.187 223.375 186 226.812 179.125ZM224.625 231.937C222.75 236.625 221.187 241.312 219.625 246H200.875C200.563 246 200.25 245.687 199.937 245.375V245.062V232.875C199.937 232.25 200.25 231.937 200.562 231.937H200.875H224.625ZM173.687 175.687C176.5 168.187 180.25 161.313 184.625 154.75C186.812 151.625 189.312 148.812 191.812 146H208.062C210.875 146 213.375 148.5 213.375 151.313V173.188C213.375 176 210.875 178.5 208.062 178.5H172.437C172.75 177.563 173.062 176.625 173.687 175.687ZM199.937 278.812C199.625 278.5 199.625 278.5 199.625 278.187V266V265.687C199.625 265.375 200.25 265.062 200.562 265.062H213.687C212.437 269.75 211.187 274.438 210.25 279.125H200.562C200.562 279.125 200.25 278.812 199.937 278.812ZM250.562 395.375V353.5H268.062L269.312 365.375L270.25 376L272.125 395.375H250.562ZM343.687 280.688V365.062H279.937L278.062 347.563C277.75 344.75 275.562 342.875 272.75 342.875H237.75C234.937 342.875 232.75 345.063 232.437 347.875L232.125 352.25L231.187 365.375H207.75C207.437 360.375 207.437 355.375 207.437 350.062C207.437 332.562 208.687 315.375 211.5 298.812C212.437 293.812 213.375 288.5 214.312 283.5H311.812C315.562 283.5 318.687 281 318.687 278.187V266C318.687 263.187 315.562 260.687 311.812 260.687H219.625C220.562 257.25 221.5 253.812 222.75 250.375H311.5C315.25 250.375 318.375 247.875 318.375 245.062V232.875C318.375 230.062 315.25 227.562 311.5 227.562H230.875C233.062 221.938 235.562 216.625 238.062 211H343.687V278.5C343.687 278.812 343.687 279.437 343.687 279.75C343.687 280.062 343.687 280.375 343.687 280.688ZM354.312 211C355.25 211 355.875 211 356.812 211C374 211 388.375 225.062 388.375 242.562C388.375 260.062 374.312 274.125 356.812 274.125C355.875 274.125 355.25 274.125 354.312 274.125V211ZM354.312 395.375V330.375C380.875 332.563 390.562 349.75 391.187 395.375H354.312Z" fill="#FFE81F"/>
</g>
<defs>
<clipPath id="clip0_23_785">
<rect width="293.75" height="300" fill="white" transform="translate(109 106)"/>
</clipPath>
</defs>
</svg>
